<?xml version="1.0" standalone="no"?>
<!DOCTYPE svg PUBLIC "-//W3C//DTD SVG 20010904//EN"
 "http://www.w3.org/TR/2001/REC-SVG-20010904/DTD/svg10.dtd">
<svg version="1.0" xmlns="http://www.w3.org/2000/svg"
 width="119.000000pt" height="27.000000pt" viewBox="0 0 119.000000 27.000000"
 preserveAspectRatio="xMidYMid meet">
<metadata>
Created by potrace 1.16, written by Peter Selinger 2001-2019
</metadata>
<g transform="translate(0.000000,27.000000) scale(0.015637,-0.008232)"
fill="#000000" stroke="none">
<path d="M1120 3091 c-68 -22 -148 -62 -186 -94 -16 -13 -46 -27 -67 -30 -25
-4 -48 -17 -71 -41 -18 -20 -39 -36 -46 -36 -25 0 -149 -92 -203 -149 -65 -70
-124 -186 -139 -273 -7 -41 -20 -72 -35 -89 -12 -14 -23 -34 -23 -45 0 -12
-10 -29 -21 -40 -32 -28 -92 -122 -116 -179 -25 -60 -49 -159 -58 -236 -4 -42
-13 -63 -31 -80 -31 -29 -31 -69 0 -106 16 -20 25 -47 30 -93 9 -80 16 -110
26 -110 4 0 5 39 3 88 -5 94 4 122 42 124 11 1 139 -39 285 -87 469 -155 423
-137 434 -175 9 -30 7 -35 -20 -56 -16 -13 -33 -24 -39 -24 -5 -1 -28 -9 -50
-20 -22 -11 -46 -19 -53 -20 -7 0 -22 -9 -34 -20 l-21 -20 34 10 c19 5 43 14
54 19 11 5 48 19 82 30 l62 22 36 -23 c43 -28 50 -47 30 -84 -8 -16 -15 -40
-15 -55 0 -14 -5 -30 -12 -37 -9 -9 -9 -15 0 -24 9 -9 12 -8 12 5 0 10 4 25 9
35 6 9 21 42 34 72 22 50 28 56 74 73 28 9 53 17 56 17 3 0 63 -50 134 -112
112 -97 128 -115 128 -142 0 -26 -6 -34 -37 -48 -56 -26 -54 -38 3 -20 36 12
55 13 67 6 14 -10 20 -24 35 -91 8 -33 17 -21 17 20 0 34 6 53 25 75 32 38 32
63 0 100 l-25 30 7 392 6 392 24 24 c30 30 29 65 -2 102 l-25 30 0 260 0 261
25 27 c33 36 33 84 0 115 -21 21 -25 33 -25 91 0 58 3 71 25 94 31 33 32 72 3
109 -18 24 -26 27 -60 22 -26 -3 -60 2 -95 14 -73 25 -215 25 -293 0z m285
-51 c23 -12 32 -25 38 -55 8 -38 5 -46 -72 -170 -105 -170 -98 -162 -157 -168
l-52 -6 -111 108 c-106 102 -111 109 -111 148 0 36 5 46 33 66 43 33 91 57
157 78 69 23 229 22 275 -1z m-582 -208 c15 -17 16 -37 7 -208 -25 -466 -32
-544 -54 -560 -11 -8 -29 -14 -40 -14 -11 0 -66 48 -132 116 -103 104 -114
119 -114 152 0 25 -8 44 -26 63 l-26 27 17 63 c36 144 111 248 235 330 83 55
107 60 133 31z m197 -121 l104 -100 -3 -46 c-1 -25 3 -61 10 -79 11 -32 9 -36
-120 -229 -72 -108 -137 -197 -145 -197 -21 0 -23 15 -15 140 3 63 12 212 18
330 14 253 18 280 35 280 7 0 60 -45 116 -99z m468 -320 c2 -187 0 -242 -10
-239 -12 4 -15 9 -88 143 -90 165 -85 152 -70 180 7 13 16 41 19 62 6 33 14
42 61 71 30 18 62 31 70 30 13 -3 15 -40 18 -247z m-126 -143 c125 -224 127
-213 -47 -237 -382 -53 -358 -51 -377 -34 -29 26 -22 66 25 129 23 33 82 119
131 192 l89 133 40 -3 40 -3 99 -177z m-832 -67 c170 -176 167 -172 162 -219
-5 -53 -8 -55 -182 -103 -74 -21 -166 -46 -204 -57 -95 -28 -116 -18 -116 52
1 88 45 232 98 316 57 92 59 93 122 85 52 -6 59 -11 120 -74z m920 -213 c0 -7
-20 -39 -43 -70 -23 -32 -73 -103 -112 -159 -132 -191 -124 -182 -148 -174
-12 4 -42 10 -66 14 -44 6 -46 8 -102 101 -86 141 -86 141 -55 194 l26 44 112
16 c273 38 315 44 351 45 24 1 37 -3 37 -11z m44 -80 c3 -13 6 -186 6 -384 0
-417 3 -406 -83 -326 -29 27 -72 66 -97 89 -132 117 -121 104 -108 145 9 29 9
44 0 63 -20 43 -14 63 34 128 162 221 214 293 214 300 0 17 28 5 34 -15z
m-758 -53 c23 -16 51 -25 74 -25 45 0 50 -5 129 -138 l61 -103 -22 -30 c-18
-24 -29 -29 -48 -26 -28 6 -174 52 -400 127 -278 93 -271 90 -251 114 8 9 23
16 35 16 11 0 41 6 66 14 25 8 74 22 110 32 36 9 83 22 105 29 62 21 100 18
141 -10z"/>
<path d="M4534 2550 c-93 -29 -143 -180 -95 -286 10 -23 59 -83 109 -134 78
-80 92 -100 101 -141 14 -63 1 -99 -34 -99 -32 0 -45 31 -45 106 l0 54 -75 0
-75 0 0 -70 c0 -73 21 -152 49 -184 32 -36 74 -50 151 -50 63 -1 80 3 108 22
55 40 75 93 76 202 1 120 -6 134 -136 267 -90 92 -99 105 -96 135 3 29 7 33
35 36 31 3 33 1 39 -37 l7 -41 73 0 74 0 0 41 c0 57 -34 130 -74 157 -38 26
-141 38 -192 22z"/>
<path d="M3390 2150 l0 -400 160 0 160 0 0 75 0 75 -85 0 -86 0 3 93 3 92 78
3 77 3 0 74 0 75 -80 0 -80 0 0 80 0 80 80 0 80 0 0 75 0 75 -155 0 -155 0 0
-400z"/>
<path d="M3762 2213 c3 -309 5 -341 22 -373 40 -74 80 -95 181 -95 76 0 121
25 155 86 l25 44 3 338 4 337 -76 0 -76 0 -1 -302 c-1 -167 -4 -314 -8 -328
-5 -19 -13 -25 -36 -25 -23 0 -31 6 -36 25 -4 14 -7 161 -8 328 l-1 302 -76 0
-75 0 3 -337z"/>
<path d="M4870 2150 l0 -400 160 0 160 0 0 75 0 75 -85 0 -86 0 3 93 3 92 78
3 77 3 0 74 0 75 -80 0 -80 0 0 80 0 80 80 0 80 0 0 75 0 75 -155 0 -155 0 0
-400z"/>
<path d="M5250 2150 l0 -400 70 0 70 0 1 283 c0 175 4 274 9 262 5 -11 19 -78
31 -150 12 -71 31 -188 43 -260 l22 -130 71 -3 71 -3 6 48 c7 50 58 367 74
463 7 41 10 -16 11 -227 l1 -283 70 0 70 0 0 400 0 400 -119 0 -120 0 -6 -57
c-4 -32 -13 -98 -20 -148 -7 -49 -19 -132 -26 -182 -7 -51 -14 -91 -16 -89 -5
4 -27 152 -48 316 -10 74 -19 141 -21 148 -2 9 -36 12 -124 12 l-120 0 0 -400z"/>
<path d="M5950 2150 l0 -400 75 0 75 0 0 155 0 155 43 0 c81 0 139 27 165 76
6 11 16 59 23 105 11 73 10 94 -5 161 -18 81 -44 120 -91 138 -15 6 -85 10
-156 10 l-129 0 0 -400z"/>
<path d="M6390 2150 l0 -400 80 0 80 0 0 185 c0 170 1 185 18 185 44 -1 47
-10 50 -195 l3 -175 75 0 75 0 -3 186 -3 186 -29 25 c-23 20 -26 27 -15 34 8
5 17 9 20 9 17 0 39 86 39 153 0 87 -22 159 -57 187 -23 18 -41 20 -179 20
l-154 0 0 -400z"/>
<path d="M6840 2150 l0 -400 165 0 165 0 0 75 0 75 -85 0 -85 0 0 95 0 95 75
0 75 0 0 75 0 75 -75 0 -75 0 0 80 0 80 80 0 80 0 0 75 0 75 -160 0 -160 0 0
-400z"/>
<path d="M3500 1639 c-19 -6 -47 -22 -62 -36 -56 -53 -58 -68 -58 -357 0 -285
4 -312 52 -364 27 -28 112 -54 153 -46 24 4 42 -2 89 -35 33 -22 63 -38 68
-35 5 3 17 23 28 45 l21 39 -36 21 -35 21 22 37 c22 35 23 43 23 311 0 265 -1
277 -22 316 -12 23 -38 51 -56 63 -41 25 -136 35 -187 20z m100 -148 c11 -21
15 -467 4 -495 -9 -22 -51 -20 -64 3 -6 12 -10 110 -10 250 0 195 2 232 16
245 21 21 41 20 54 -3z"/>
<path d="M5237 1638 c-44 -12 -102 -74 -111 -120 -3 -17 -6 -143 -6 -280 0
-270 4 -295 57 -350 80 -84 247 -65 304 35 23 41 24 49 27 289 4 287 -3 339
-51 385 -50 49 -133 64 -220 41z m101 -140 c9 -9 12 -78 12 -249 0 -131 -3
-244 -6 -253 -9 -22 -51 -20 -64 3 -6 12 -10 108 -10 243 0 186 3 227 16 246
17 25 34 28 52 10z"/>
<path d="M7265 1640 c-68 -21 -115 -99 -115 -190 0 -79 25 -123 128 -230 69
-72 94 -105 103 -138 15 -56 3 -96 -31 -100 -35 -6 -50 22 -50 95 l0 63 -75 0
-75 0 0 -71 c0 -142 42 -206 150 -229 54 -12 68 -11 115 4 83 26 111 74 122
206 8 105 -16 154 -137 277 -81 82 -100 107 -100 131 0 65 60 66 70 1 l5 -34
78 -3 77 -3 0 31 c0 78 -29 139 -81 174 -31 20 -141 30 -184 16z"/>
<path d="M3840 1330 c0 -185 4 -329 11 -360 35 -165 284 -187 356 -31 15 31
18 84 21 369 l3 332 -75 0 -76 0 -1 -287 c0 -334 -4 -366 -39 -371 -48 -7 -50
7 -50 345 l0 313 -75 0 -75 0 0 -310z"/>
<path d="M4290 1240 l0 -400 165 0 165 0 0 75 0 75 -85 0 -85 0 0 95 0 95 75
0 75 0 0 75 0 75 -75 0 -75 0 0 80 0 80 80 0 80 0 0 75 0 75 -160 0 -160 0 0
-400z"/>
<path d="M4680 1240 l0 -400 80 0 80 0 0 185 c0 191 1 196 41 175 18 -10 19
-23 19 -185 l0 -175 74 0 74 0 7 107 c4 58 5 143 2 187 -5 72 -8 83 -32 104
l-27 23 25 19 c13 11 30 40 37 65 15 55 8 175 -13 227 -25 59 -54 68 -222 68
l-145 0 0 -400z"/>
<path d="M5800 1240 l0 -400 70 0 70 0 1 283 c1 201 4 270 10 242 10 -42 89
-500 89 -516 0 -5 31 -9 70 -9 80 0 69 -15 94 140 47 287 69 415 72 419 2 2 4
-122 4 -277 l0 -282 70 0 70 0 0 400 0 400 -120 0 -119 0 -6 -32 c-9 -59 -43
-302 -50 -364 -11 -102 -21 -90 -38 48 -32 248 -36 283 -42 316 l-6 32 -119 0
-120 0 0 -400z"/>
<path d="M6550 1613 c0 -16 -5 -71 -10 -123 -6 -52 -19 -192 -30 -310 -10
-118 -22 -243 -26 -277 l-7 -63 77 0 76 0 0 49 c0 74 5 81 60 81 l48 0 7 -65
7 -65 75 0 76 0 -7 38 c-3 21 -10 94 -16 163 -6 68 -12 140 -15 159 -3 19 -12
112 -20 205 -8 94 -18 185 -21 203 l-6 32 -134 0 -134 0 0 -27z m161 -308 c18
-227 19 -209 -15 -213 -16 -2 -32 0 -37 5 -8 8 0 176 17 348 10 97 19 60 35
-140z"/>
<path d="M6950 1240 l0 -400 75 0 75 0 0 400 0 400 -75 0 -75 0 0 -400z"/>
<path d="M3567 552 c-41 -45 -4 -132 54 -132 58 0 93 95 51 133 -25 23 -85 22
-105 -1z"/>
<path d="M4450 493 c0 -58 3 -73 15 -73 11 0 15 12 15 49 0 47 17 81 40 81 17
0 30 -38 30 -84 0 -34 4 -46 15 -46 12 0 15 13 15 60 0 45 4 62 15 66 28 11
45 -16 45 -72 0 -41 4 -54 15 -54 12 0 15 13 15 56 0 71 -12 94 -50 94 -16 0
-32 -5 -35 -10 -5 -7 -11 -8 -19 -1 -6 5 -35 9 -64 9 l-52 -1 0 -74z"/>
<path d="M5166 548 c-23 -33 -20 -83 6 -108 28 -26 58 -26 92 1 32 25 37 86 8
112 -28 25 -87 22 -106 -5z"/>
</g>
</svg>
